<svg xmlns="http://www.w3.org/2000/svg" width="16" height="16" viewBox="0 0 16 16" fill="none">
<rect width="16" height="16" rx="2" fill="#E31837"/>
<path fill-rule="evenodd" clip-rule="evenodd" d="M5.51128 4.35941L4.03757 2.03076L6.66595 3.02432C9.36421 2.58964 10.5047 3.64011 10.7377 4.21969C11.6492 5.90874 10.7326 7.49014 10.1603 8.06972C11.6067 8.66586 11.9784 9.78774 11.9835 10.2742C12.0442 13.2424 10.0236 13.9845 8.96008 13.9845H5.52647L5.51128 4.35941ZM6.58998 8.86357H8.8361C9.90386 8.86357 10.7695 9.74806 10.7695 10.8391C10.7695 11.9302 9.90386 12.8146 8.8361 12.8146H6.58998V8.86357ZM8.26746 3.92473H6.58998V7.75958H8.26746C9.30383 7.75958 10.144 6.90115 10.144 5.84217C10.144 4.78319 9.30383 3.92473 8.26746 3.92473Z" fill="white"/>
<path d="M4.03756 2.03075L4.04281 2.01619L4 2L4.0248 2.03918L4.03756 2.03075ZM5.51127 4.3594L5.52647 4.35936V4.3548L5.52403 4.35095L5.51127 4.3594ZM6.66594 3.0243L6.66068 3.03886L6.66438 3.04027L6.66831 3.03964L6.66594 3.0243ZM10.7376 4.21968L10.7236 4.22558L10.7239 4.22638L10.7243 4.22716L10.7376 4.21968ZM10.1603 8.06971L10.1496 8.05869L10.1332 8.0753L10.1546 8.08412L10.1603 8.06971ZM11.9835 10.2742L11.9683 10.2743V10.2745L11.9835 10.2742ZM5.52647 13.9845L5.51127 13.9845L5.5113 14H5.52647V13.9845ZM6.58997 8.86356V8.84804H6.57478V8.86356H6.58997ZM6.58997 12.8146H6.57478V12.8301H6.58997V12.8146ZM6.58997 3.92471V3.90919H6.57478V3.92471H6.58997ZM6.58997 7.75956H6.57478V7.77509H6.58997V7.75956ZM4.0248 2.03918L5.49851 4.36784L5.52403 4.35095L4.05032 2.02232L4.0248 2.03918ZM6.67119 3.00975L4.04281 2.01619L4.0323 2.04531L6.66068 3.03886L6.67119 3.00975ZM10.7517 4.21378C10.515 3.625 9.36569 2.57367 6.66357 3.00897L6.66831 3.03964C9.36271 2.60558 10.4943 3.65521 10.7236 4.22558L10.7517 4.21378ZM10.171 8.08073C10.7455 7.49888 11.6673 5.91003 10.751 4.21219L10.7243 4.22716C11.6312 5.90742 10.7196 7.4814 10.1496 8.05869L10.171 8.08073ZM11.9987 10.274C11.9935 9.78145 11.6182 8.65386 10.166 8.0553L10.1546 8.08412C11.5952 8.67783 11.9633 9.79403 11.9683 10.2743L11.9987 10.274ZM8.96007 14C9.49474 14 10.2695 13.8136 10.9033 13.2541C11.5377 12.6942 12.0291 11.762 11.9987 10.2739L11.9683 10.2745C11.9986 11.7546 11.5101 12.6775 10.8834 13.2307C10.2562 13.7843 9.4889 13.969 8.96007 13.969V14ZM5.52647 14H8.96007V13.969H5.52647V14ZM5.49608 4.35943L5.51127 13.9845L5.54166 13.9844L5.52647 4.35936L5.49608 4.35943ZM8.83609 8.84804H6.58997V8.87908H8.83609V8.84804ZM10.7846 10.8391C10.7846 9.73947 9.91224 8.84804 8.83609 8.84804V8.87908C9.89547 8.87908 10.7543 9.75661 10.7543 10.8391H10.7846ZM8.83609 12.8301C9.91224 12.8301 10.7846 11.9387 10.7846 10.8391H10.7543C10.7543 11.9216 9.89547 12.7991 8.83609 12.7991V12.8301ZM6.58997 12.8301H8.83609V12.7991H6.58997V12.8301ZM6.57478 8.86356V12.8146H6.60516V8.86356H6.57478ZM6.58997 3.94024H8.26745V3.90919H6.58997V3.94024ZM6.60516 7.75956V3.92471H6.57478V7.75956H6.60516ZM8.26745 7.74404H6.58997V7.77509H8.26745V7.74404ZM10.1288 5.84215C10.1288 6.89253 9.29544 7.74404 8.26745 7.74404V7.77509C9.31221 7.77509 10.1592 6.9097 10.1592 5.84215H10.1288ZM8.26745 3.94024C9.29544 3.94024 10.1288 4.79175 10.1288 5.84215H10.1592C10.1592 4.77461 9.31221 3.90919 8.26745 3.90919V3.94024Z" fill="white"/>
<path d="M7.73271 5.85638C8.07853 5.85638 8.35888 5.56992 8.35888 5.21655C8.35888 4.86318 8.07853 4.57672 7.73271 4.57672C7.38688 4.57672 7.10654 4.86318 7.10654 5.21655C7.10654 5.56992 7.38688 5.85638 7.73271 5.85638Z" fill="white"/>
</svg>